<svg xmlns="http://www.w3.org/2000/svg" width="72" height="72" viewBox="0 0 72 72"><path d="M70.202 26.797l-33-24.833c-.033-.025-.069-.04-.104-.063a1.97 1.97 0 0 0-.17-.103 2.103 2.103 0 0 0-.735-.22 2.159 2.159 0 0 0-.385-.001 2.023 2.023 0 0 0-.922.331c-.029.02-.061.033-.09.055l-33 24.833a2.001 2.001 0 0 0 2.405 3.197l5.179-3.897V60.06c0 7.854 2.049 10.375 9.619 10.375h34c7.57 0 10.381-2.521 10.381-10.375V26.671l4.416 3.323c.36.271.782.402 1.201.402a2 2 0 0 0 1.205-3.599zM31.201 47.438H40.8c2.2 0 2.581.039 2.581 2.025v16.975H29.382V49.463c0-1.986-.381-2.025 1.819-2.025zm28.18-23v35.625c0 5.721-.998 6.375-6.381 6.375h-7.619V49.463c0-3.443-1.677-4.025-4.581-4.025h-9.599c-2.904 0-3.819.582-3.819 4.025v16.975H19c-5.384 0-5.619-.654-5.619-6.375V24.438c0-.407-.123-.784-.332-1.1L36 6.066l23.508 17.69a1.985 1.985 0 0 0-.127.682z"/><path d="M30.612 16.207L17.582 26.27c-.247.189-.201.482-.201.793v11.375a1 1 0 102 0V27.556l12.567-9.762c.439-.336.354-.964.018-1.402a.944.944 0 00-1.354-.185zM18.381 41.438a1 1 0 00-1 1v1a1 1 0 102 0v-1a1 1 0 00-1-1z"/></svg>