<svg xmlns="http://www.w3.org/2000/svg" data-name="Layer 1" viewBox="0 0 32 32"><path d="M26.85,20.82H8.74a1,1,0,0,1-1-.85l-2-12.75A1,1,0,0,1,6,6.42a1,1,0,0,1,.76-.35H28.85a1,1,0,0,1,.76.35,1,1,0,0,1,.23.8L27.84,20A1,1,0,0,1,26.85,20.82Zm-17.25-2H26L27.68,8.07H7.91Z"/><path d="M25.49 23.55H8.74a1 1 0 0 1-1-1V19.9l-2-12.49L4.26 4.76 2.89 4.39a1 1 0 0 1 .52-1.93l1.77.48a1 1 0 0 1 .61.47L7.61 6.57a1 1 0 0 1 .12.34l2 12.75a.86.86 0 0 1 0 .16v1.73H25.49a1 1 0 0 1 0 2zM11 29.58a2.69 2.69 0 1 1 2.68-2.69A2.69 2.69 0 0 1 11 29.58zm0-3.38a.69.69 0 0 0 0 1.38.69.69 0 0 0 0-1.38zM22.92 29.58a2.69 2.69 0 1 1 2.69-2.69A2.7 2.7 0 0 1 22.92 29.58zm0-3.38a.69.69 0 1 0 .69.69A.69.69 0 0 0 22.92 26.2z"/></svg>