<svg xmlns="http://www.w3.org/2000/svg" data-name="Layer 1" viewBox="0 0 40 40"><path fill="#231f20" d="M33.93,7.54a.63.63,0,0,0,0-.19s0,0,0-.08,0-.06-.06-.09A.82.82,0,0,0,33.71,7a.8.8,0,0,0-.13-.13l-.15-.1a.84.84,0,0,0-.2-.08l-.09,0h-.28l-.2,0h-.08L2.3,18.91a1,1,0,0,0,0,1.84L9.76,24,12,33.22a1,1,0,0,0,.63.71A1,1,0,0,0,13,34a1,1,0,0,0,.6-.2l1.95-1.46a1,1,0,0,0-1.2-1.6l-.73.55-2-8.25a1,1,0,0,0-.57-.69L5.27,19.87,31.63,9.25l-4.57,24.2L16.14,25.61l9.4-9.26a1,1,0,1,0-1.41-1.42L13.89,25a1,1,0,0,0-.29.78,1,1,0,0,0,.41.74L27.16,36a1,1,0,0,0,.59.19,1,1,0,0,0,.37-.07,1,1,0,0,0,.61-.74L33.94,7.83s0-.06,0-.08A1.48,1.48,0,0,0,33.93,7.54Z"/><path fill="#231f20" d="M28.74,12.8a1,1,0,1,0-1,1A1,1,0,0,0,28.74,12.8Z"/></svg>